<mxfile host="app.diagrams.net" modified="2022-01-05T03:19:21.841Z" agent="5.0 (Windows)" etag="TaypBCSUA-6BMBbG-xs0" version="16.2.1" type="github">
  <diagram id="a1D_lF2K-nznCuwd_Psa" name="第 1 页">
    <mxGraphModel dx="333" dy="179" grid="1" gridSize="1" guides="1" tooltips="1" connect="1" arrows="1" fold="1" page="1" pageScale="1" pageWidth="827" pageHeight="1169" math="0" shadow="0">
      <root>
        <mxCell id="0" />
        <mxCell id="1" parent="0" />
        <mxCell id="IbOyLZbnckM_9YpusnKu-1" value="&lt;div&gt;&lt;font style=&quot;font-size: 8px&quot;&gt;云平台&lt;/font&gt;&lt;/div&gt;" style="ellipse;shape=cloud;whiteSpace=wrap;html=1;strokeWidth=0.2;fillColor=#dae8fc;strokeColor=none;" vertex="1" parent="1">
          <mxGeometry x="283" y="249" width="172" height="42" as="geometry" />
        </mxCell>
        <mxCell id="IbOyLZbnckM_9YpusnKu-5" value="&lt;div&gt;建筑管理&lt;/div&gt;&lt;div&gt;系统&lt;/div&gt;" style="rounded=0;whiteSpace=wrap;html=1;strokeWidth=0.2;fontSize=8;fillColor=#fff2cc;strokeColor=#d6b656;" vertex="1" parent="1">
          <mxGeometry x="364" y="326.15" width="47" height="22" as="geometry" />
        </mxCell>
        <mxCell id="IbOyLZbnckM_9YpusnKu-6" value="PC工作站" style="rounded=0;whiteSpace=wrap;html=1;strokeWidth=0.2;fontSize=8;fillColor=#f8cecc;strokeColor=#b85450;" vertex="1" parent="1">
          <mxGeometry x="481" y="250" width="47" height="22" as="geometry" />
        </mxCell>
        <mxCell id="IbOyLZbnckM_9YpusnKu-8" value="BI大屏" style="rounded=0;whiteSpace=wrap;html=1;strokeWidth=0.2;fontSize=8;fillColor=#e1d5e7;strokeColor=#9673a6;" vertex="1" parent="1">
          <mxGeometry x="381" y="197.82" width="47" height="22" as="geometry" />
        </mxCell>
        <mxCell id="IbOyLZbnckM_9YpusnKu-11" value="&lt;div&gt;&lt;font style=&quot;font-size: 14px&quot;&gt;翱云智慧控制系统架构&lt;/font&gt;&lt;/div&gt;" style="text;whiteSpace=wrap;html=1;" vertex="1" parent="1">
          <mxGeometry x="298" y="149" width="173" height="20" as="geometry" />
        </mxCell>
        <mxCell id="IbOyLZbnckM_9YpusnKu-13" value="" style="endArrow=classicThin;html=1;rounded=0;fontSize=8;exitX=1;exitY=0.5;exitDx=0;exitDy=0;entryX=0.177;entryY=0.816;entryDx=0;entryDy=0;entryPerimeter=0;startArrow=classicThin;startFill=1;endFill=1;strokeWidth=0.4;endSize=4;startSize=4;" edge="1" parent="1" source="IbOyLZbnckM_9YpusnKu-19" target="IbOyLZbnckM_9YpusnKu-1">
          <mxGeometry width="50" height="50" relative="1" as="geometry">
            <mxPoint x="284.9999999999999" y="309" as="sourcePoint" />
            <mxPoint x="313.2360000000001" y="273.996" as="targetPoint" />
            <Array as="points">
              <mxPoint x="313" y="327" />
            </Array>
          </mxGeometry>
        </mxCell>
        <mxCell id="IbOyLZbnckM_9YpusnKu-15" value="" style="endArrow=classicThin;html=1;rounded=0;fontSize=8;exitX=0.5;exitY=0;exitDx=0;exitDy=0;entryX=0.666;entryY=0.925;entryDx=0;entryDy=0;entryPerimeter=0;startArrow=classicThin;startFill=1;endFill=1;strokeWidth=0.4;endSize=4;startSize=4;" edge="1" parent="1" source="IbOyLZbnckM_9YpusnKu-5">
          <mxGeometry width="50" height="50" relative="1" as="geometry">
            <mxPoint x="355.0000000000001" y="333.16999999999996" as="sourcePoint" />
            <mxPoint x="372.55200000000013" y="289" as="targetPoint" />
            <Array as="points">
              <mxPoint x="388" y="306.15" />
              <mxPoint x="372" y="306.15" />
            </Array>
          </mxGeometry>
        </mxCell>
        <mxCell id="IbOyLZbnckM_9YpusnKu-16" value="" style="endArrow=classicThin;html=1;rounded=0;fontSize=8;exitX=0.945;exitY=0.591;exitDx=0;exitDy=0;entryX=0;entryY=0.5;entryDx=0;entryDy=0;startArrow=classicThin;startFill=1;endFill=1;strokeWidth=0.4;endSize=4;startSize=4;exitPerimeter=0;" edge="1" parent="1" source="IbOyLZbnckM_9YpusnKu-1" target="IbOyLZbnckM_9YpusnKu-6">
          <mxGeometry width="50" height="50" relative="1" as="geometry">
            <mxPoint x="446" y="293.02" as="sourcePoint" />
            <mxPoint x="467.2360000000001" y="237.99599999999998" as="targetPoint" />
            <Array as="points">
              <mxPoint x="463" y="274" />
              <mxPoint x="463" y="261" />
            </Array>
          </mxGeometry>
        </mxCell>
        <mxCell id="IbOyLZbnckM_9YpusnKu-17" value="" style="endArrow=classicThin;html=1;rounded=0;fontSize=8;exitX=0.723;exitY=0.171;exitDx=0;exitDy=0;entryX=0.5;entryY=1;entryDx=0;entryDy=0;startArrow=classicThin;startFill=1;endFill=1;strokeWidth=0.4;endSize=4;startSize=4;exitPerimeter=0;" edge="1" parent="1" target="IbOyLZbnckM_9YpusnKu-8">
          <mxGeometry width="50" height="50" relative="1" as="geometry">
            <mxPoint x="391.356" y="257.002" as="sourcePoint" />
            <mxPoint x="389.2360000000001" y="225.81599999999997" as="targetPoint" />
            <Array as="points">
              <mxPoint x="391" y="235.82" />
              <mxPoint x="405" y="235.82" />
            </Array>
          </mxGeometry>
        </mxCell>
        <mxCell id="IbOyLZbnckM_9YpusnKu-19" value="移动端APP" style="rounded=0;whiteSpace=wrap;html=1;strokeWidth=0.2;fontSize=8;fillColor=#d5e8d4;strokeColor=none;" vertex="1" parent="1">
          <mxGeometry x="238" y="316" width="47" height="22" as="geometry" />
        </mxCell>
        <mxCell id="IbOyLZbnckM_9YpusnKu-22" style="edgeStyle=orthogonalEdgeStyle;rounded=0;orthogonalLoop=1;jettySize=auto;html=1;exitX=1;exitY=0.5;exitDx=0;exitDy=0;entryX=0.13;entryY=0.77;entryDx=0;entryDy=0;entryPerimeter=0;fontSize=8;endArrow=classicThin;startArrow=classicThin;startFill=1;endFill=1;strokeWidth=0.4;endSize=4;startSize=4;" edge="1" parent="1" source="IbOyLZbnckM_9YpusnKu-20" target="IbOyLZbnckM_9YpusnKu-1">
          <mxGeometry relative="1" as="geometry" />
        </mxCell>
        <mxCell id="IbOyLZbnckM_9YpusnKu-20" value="小程序" style="rounded=0;whiteSpace=wrap;html=1;strokeWidth=0.2;fontSize=8;fillColor=#d5e8d4;strokeColor=none;" vertex="1" parent="1">
          <mxGeometry x="238" y="285" width="47" height="22" as="geometry" />
        </mxCell>
      </root>
    </mxGraphModel>
  </diagram>
</mxfile>
